<mxfile host="app.diagrams.net" agent="Mozilla/5.0 (Windows NT 10.0; Win64; x64; rv:130.0) Gecko/20100101 Firefox/130.0" version="24.7.17">
  <diagram name="Page-1" id="0783ab3e-0a74-02c8-0abd-f7b4e66b4bec">
    <mxGraphModel dx="819" dy="426" grid="1" gridSize="10" guides="1" tooltips="1" connect="1" arrows="1" fold="1" page="1" pageScale="1" pageWidth="850" pageHeight="1100" background="none" math="0" shadow="0">
      <root>
        <mxCell id="0" />
        <mxCell id="1" parent="0" />
        <mxCell id="U-Rq0Vjozz2yiy6B-r0v-24" style="edgeStyle=orthogonalEdgeStyle;rounded=0;html=1;labelBackgroundColor=none;startArrow=none;startFill=0;startSize=5;endArrow=classicThin;endFill=1;endSize=5;jettySize=auto;orthogonalLoop=1;strokeWidth=1;fontFamily=Verdana;fontSize=12" edge="1" parent="1" source="U-Rq0Vjozz2yiy6B-r0v-25" target="U-Rq0Vjozz2yiy6B-r0v-26">
          <mxGeometry relative="1" as="geometry" />
        </mxCell>
        <mxCell id="U-Rq0Vjozz2yiy6B-r0v-25" value="" style="ellipse;whiteSpace=wrap;html=1;rounded=0;shadow=0;comic=0;labelBackgroundColor=none;strokeWidth=1;fillColor=#000000;fontFamily=Verdana;fontSize=12;align=center;" vertex="1" parent="1">
          <mxGeometry x="373.5" y="30" width="40" height="40" as="geometry" />
        </mxCell>
        <mxCell id="U-Rq0Vjozz2yiy6B-r0v-26" value="Checkout" style="rounded=1;whiteSpace=wrap;html=1;shadow=0;comic=0;labelBackgroundColor=none;strokeWidth=1;fontFamily=Verdana;fontSize=12;align=center;arcSize=50;" vertex="1" parent="1">
          <mxGeometry x="343.5" y="110" width="100" height="30" as="geometry" />
        </mxCell>
        <mxCell id="U-Rq0Vjozz2yiy6B-r0v-52" style="edgeStyle=orthogonalEdgeStyle;rounded=0;html=1;entryX=0.5;entryY=0;labelBackgroundColor=none;startArrow=none;startFill=0;startSize=5;endArrow=classicThin;endFill=1;endSize=5;jettySize=auto;orthogonalLoop=1;strokeWidth=1;fontFamily=Verdana;fontSize=12" edge="1" parent="1" source="U-Rq0Vjozz2yiy6B-r0v-26">
          <mxGeometry relative="1" as="geometry">
            <Array as="points">
              <mxPoint x="394" y="165" />
            </Array>
            <mxPoint x="393.5" y="200" as="targetPoint" />
          </mxGeometry>
        </mxCell>
        <mxCell id="U-Rq0Vjozz2yiy6B-r0v-61" value="" style="edgeStyle=orthogonalEdgeStyle;rounded=0;orthogonalLoop=1;jettySize=auto;html=1;entryX=0.5;entryY=0;entryDx=0;entryDy=0;" edge="1" parent="1" source="U-Rq0Vjozz2yiy6B-r0v-59" target="U-Rq0Vjozz2yiy6B-r0v-65">
          <mxGeometry relative="1" as="geometry">
            <mxPoint x="393.5" y="320" as="targetPoint" />
          </mxGeometry>
        </mxCell>
        <mxCell id="U-Rq0Vjozz2yiy6B-r0v-62" value="[&amp;gt;0 items in cart]" style="edgeLabel;html=1;align=center;verticalAlign=middle;resizable=0;points=[];" vertex="1" connectable="0" parent="U-Rq0Vjozz2yiy6B-r0v-61">
          <mxGeometry x="-0.3019" relative="1" as="geometry">
            <mxPoint x="1" as="offset" />
          </mxGeometry>
        </mxCell>
        <mxCell id="U-Rq0Vjozz2yiy6B-r0v-63" style="edgeStyle=orthogonalEdgeStyle;rounded=0;orthogonalLoop=1;jettySize=auto;html=1;exitX=0;exitY=0.5;exitDx=0;exitDy=0;entryX=0;entryY=0.5;entryDx=0;entryDy=0;" edge="1" parent="1" source="U-Rq0Vjozz2yiy6B-r0v-59" target="U-Rq0Vjozz2yiy6B-r0v-26">
          <mxGeometry relative="1" as="geometry" />
        </mxCell>
        <mxCell id="U-Rq0Vjozz2yiy6B-r0v-64" value="&lt;div&gt;[1&amp;lt;items in cart]&lt;/div&gt;" style="edgeLabel;html=1;align=center;verticalAlign=middle;resizable=0;points=[];" vertex="1" connectable="0" parent="U-Rq0Vjozz2yiy6B-r0v-63">
          <mxGeometry x="0.3086" y="1" relative="1" as="geometry">
            <mxPoint x="-2" y="9" as="offset" />
          </mxGeometry>
        </mxCell>
        <mxCell id="U-Rq0Vjozz2yiy6B-r0v-59" value="" style="rhombus;whiteSpace=wrap;html=1;" vertex="1" parent="1">
          <mxGeometry x="360.5" y="200" width="66" height="60" as="geometry" />
        </mxCell>
        <mxCell id="U-Rq0Vjozz2yiy6B-r0v-65" value="Insert Shipping Address" style="rounded=1;whiteSpace=wrap;html=1;" vertex="1" parent="1">
          <mxGeometry x="333.5" y="300" width="120" height="60" as="geometry" />
        </mxCell>
        <mxCell id="U-Rq0Vjozz2yiy6B-r0v-66" style="edgeStyle=orthogonalEdgeStyle;rounded=0;html=1;entryX=0.5;entryY=0;labelBackgroundColor=none;startArrow=none;startFill=0;startSize=5;endArrow=classicThin;endFill=1;endSize=5;jettySize=auto;orthogonalLoop=1;strokeWidth=1;fontFamily=Verdana;fontSize=12;exitX=0.5;exitY=1;exitDx=0;exitDy=0;entryDx=0;entryDy=0;" edge="1" parent="1" source="U-Rq0Vjozz2yiy6B-r0v-65" target="U-Rq0Vjozz2yiy6B-r0v-69">
          <mxGeometry relative="1" as="geometry">
            <mxPoint x="384" y="375" as="sourcePoint" />
            <mxPoint x="383.5" y="435" as="targetPoint" />
          </mxGeometry>
        </mxCell>
        <mxCell id="U-Rq0Vjozz2yiy6B-r0v-67" style="edgeStyle=orthogonalEdgeStyle;rounded=0;orthogonalLoop=1;jettySize=auto;html=1;exitX=0;exitY=0.5;exitDx=0;exitDy=0;entryX=0;entryY=0.5;entryDx=0;entryDy=0;" edge="1" parent="1" source="U-Rq0Vjozz2yiy6B-r0v-69" target="U-Rq0Vjozz2yiy6B-r0v-65">
          <mxGeometry relative="1" as="geometry">
            <mxPoint x="334" y="360" as="targetPoint" />
          </mxGeometry>
        </mxCell>
        <mxCell id="U-Rq0Vjozz2yiy6B-r0v-68" value="[Shipping Address&lt;div&gt;invalid]&lt;br&gt;&lt;/div&gt;" style="edgeLabel;html=1;align=center;verticalAlign=middle;resizable=0;points=[];" vertex="1" connectable="0" parent="U-Rq0Vjozz2yiy6B-r0v-67">
          <mxGeometry x="0.3086" y="1" relative="1" as="geometry">
            <mxPoint x="-2" y="9" as="offset" />
          </mxGeometry>
        </mxCell>
        <mxCell id="U-Rq0Vjozz2yiy6B-r0v-71" value="" style="edgeStyle=orthogonalEdgeStyle;rounded=0;orthogonalLoop=1;jettySize=auto;html=1;" edge="1" parent="1" source="U-Rq0Vjozz2yiy6B-r0v-69" target="U-Rq0Vjozz2yiy6B-r0v-70">
          <mxGeometry relative="1" as="geometry" />
        </mxCell>
        <mxCell id="U-Rq0Vjozz2yiy6B-r0v-72" value="&lt;div&gt;[Shipping Address&lt;/div&gt;&lt;div&gt;Valid]&lt;/div&gt;" style="edgeLabel;html=1;align=center;verticalAlign=middle;resizable=0;points=[];" vertex="1" connectable="0" parent="U-Rq0Vjozz2yiy6B-r0v-71">
          <mxGeometry x="-0.2501" y="2" relative="1" as="geometry">
            <mxPoint as="offset" />
          </mxGeometry>
        </mxCell>
        <mxCell id="U-Rq0Vjozz2yiy6B-r0v-69" value="" style="rhombus;whiteSpace=wrap;html=1;" vertex="1" parent="1">
          <mxGeometry x="360.5" y="390" width="66" height="60" as="geometry" />
        </mxCell>
        <mxCell id="U-Rq0Vjozz2yiy6B-r0v-77" value="" style="edgeStyle=orthogonalEdgeStyle;rounded=0;orthogonalLoop=1;jettySize=auto;html=1;" edge="1" parent="1" source="U-Rq0Vjozz2yiy6B-r0v-70" target="U-Rq0Vjozz2yiy6B-r0v-76">
          <mxGeometry relative="1" as="geometry" />
        </mxCell>
        <mxCell id="U-Rq0Vjozz2yiy6B-r0v-70" value="&lt;div&gt;Insert Payment&lt;/div&gt;&lt;div&gt;Method&lt;br&gt;&lt;/div&gt;" style="rounded=1;whiteSpace=wrap;html=1;" vertex="1" parent="1">
          <mxGeometry x="570" y="390" width="120" height="60" as="geometry" />
        </mxCell>
        <mxCell id="U-Rq0Vjozz2yiy6B-r0v-79" value="" style="edgeStyle=orthogonalEdgeStyle;rounded=0;orthogonalLoop=1;jettySize=auto;html=1;entryX=0;entryY=0.5;entryDx=0;entryDy=0;exitX=0;exitY=0.5;exitDx=0;exitDy=0;" edge="1" parent="1" source="U-Rq0Vjozz2yiy6B-r0v-76" target="U-Rq0Vjozz2yiy6B-r0v-85">
          <mxGeometry relative="1" as="geometry">
            <mxPoint x="485.0000000000002" y="560" as="targetPoint" />
          </mxGeometry>
        </mxCell>
        <mxCell id="U-Rq0Vjozz2yiy6B-r0v-83" value="&lt;div&gt;[Payment&lt;/div&gt;&lt;div&gt;by IDeal]&lt;br&gt;&lt;/div&gt;" style="edgeLabel;html=1;align=center;verticalAlign=middle;resizable=0;points=[];" vertex="1" connectable="0" parent="U-Rq0Vjozz2yiy6B-r0v-79">
          <mxGeometry x="-0.3735" relative="1" as="geometry">
            <mxPoint y="19" as="offset" />
          </mxGeometry>
        </mxCell>
        <mxCell id="U-Rq0Vjozz2yiy6B-r0v-81" value="[Payment&lt;div&gt;by Credit Cart]&lt;br&gt;&lt;/div&gt;" style="edgeStyle=orthogonalEdgeStyle;rounded=0;orthogonalLoop=1;jettySize=auto;html=1;entryX=1;entryY=0.5;entryDx=0;entryDy=0;exitX=1;exitY=0.5;exitDx=0;exitDy=0;" edge="1" parent="1" source="U-Rq0Vjozz2yiy6B-r0v-76" target="U-Rq0Vjozz2yiy6B-r0v-85">
          <mxGeometry x="-0.0769" relative="1" as="geometry">
            <mxPoint x="689.9999999999998" y="560" as="targetPoint" />
            <mxPoint as="offset" />
          </mxGeometry>
        </mxCell>
        <mxCell id="U-Rq0Vjozz2yiy6B-r0v-76" value="" style="rhombus;whiteSpace=wrap;html=1;" vertex="1" parent="1">
          <mxGeometry x="597" y="480" width="66" height="60" as="geometry" />
        </mxCell>
        <mxCell id="U-Rq0Vjozz2yiy6B-r0v-88" value="" style="edgeStyle=orthogonalEdgeStyle;rounded=0;orthogonalLoop=1;jettySize=auto;html=1;entryX=1;entryY=0.5;entryDx=0;entryDy=0;exitX=1;exitY=1;exitDx=0;exitDy=0;" edge="1" parent="1" source="U-Rq0Vjozz2yiy6B-r0v-85" target="U-Rq0Vjozz2yiy6B-r0v-70">
          <mxGeometry relative="1" as="geometry">
            <mxPoint x="808.97" y="620" as="sourcePoint" />
            <mxPoint x="759.97" y="420" as="targetPoint" />
            <Array as="points">
              <mxPoint x="740" y="615" />
              <mxPoint x="740" y="420" />
            </Array>
          </mxGeometry>
        </mxCell>
        <mxCell id="U-Rq0Vjozz2yiy6B-r0v-89" value="[Payment refused]" style="edgeLabel;html=1;align=center;verticalAlign=middle;resizable=0;points=[];" vertex="1" connectable="0" parent="U-Rq0Vjozz2yiy6B-r0v-88">
          <mxGeometry x="0.3018" y="1" relative="1" as="geometry">
            <mxPoint as="offset" />
          </mxGeometry>
        </mxCell>
        <mxCell id="U-Rq0Vjozz2yiy6B-r0v-85" value="" style="rhombus;whiteSpace=wrap;html=1;" vertex="1" parent="1">
          <mxGeometry x="597" y="570" width="66" height="60" as="geometry" />
        </mxCell>
        <mxCell id="U-Rq0Vjozz2yiy6B-r0v-90" value="Send Email" style="rounded=1;whiteSpace=wrap;html=1;" vertex="1" parent="1">
          <mxGeometry x="530" y="732" width="80" height="50" as="geometry" />
        </mxCell>
        <mxCell id="U-Rq0Vjozz2yiy6B-r0v-91" value="" style="rounded=0;orthogonalLoop=1;jettySize=auto;html=1;edgeStyle=orthogonalEdgeStyle;" edge="1" parent="1" source="U-Rq0Vjozz2yiy6B-r0v-85">
          <mxGeometry relative="1" as="geometry">
            <mxPoint x="790" y="620" as="sourcePoint" />
            <mxPoint x="630" y="690" as="targetPoint" />
          </mxGeometry>
        </mxCell>
        <mxCell id="U-Rq0Vjozz2yiy6B-r0v-92" value="[Payment accepted]" style="edgeLabel;html=1;align=center;verticalAlign=middle;resizable=0;points=[];" vertex="1" connectable="0" parent="U-Rq0Vjozz2yiy6B-r0v-91">
          <mxGeometry x="0.3018" y="1" relative="1" as="geometry">
            <mxPoint y="-12" as="offset" />
          </mxGeometry>
        </mxCell>
        <mxCell id="U-Rq0Vjozz2yiy6B-r0v-95" value="" style="line;strokeWidth=4;fillColor=none;align=left;verticalAlign=middle;spacingTop=-1;spacingLeft=3;spacingRight=3;rotatable=0;labelPosition=right;points=[];portConstraint=eastwest;strokeColor=inherit;" vertex="1" parent="1">
          <mxGeometry x="520" y="692" width="230" height="8" as="geometry" />
        </mxCell>
        <mxCell id="U-Rq0Vjozz2yiy6B-r0v-98" value="" style="line;strokeWidth=4;fillColor=none;align=left;verticalAlign=middle;spacingTop=-1;spacingLeft=3;spacingRight=3;rotatable=0;labelPosition=right;points=[];portConstraint=eastwest;strokeColor=inherit;" vertex="1" parent="1">
          <mxGeometry x="515" y="810" width="230" height="8" as="geometry" />
        </mxCell>
        <mxCell id="U-Rq0Vjozz2yiy6B-r0v-99" value="Process order" style="rounded=1;whiteSpace=wrap;html=1;" vertex="1" parent="1">
          <mxGeometry x="657" y="740" width="88" height="34" as="geometry" />
        </mxCell>
        <mxCell id="U-Rq0Vjozz2yiy6B-r0v-100" value="" style="endArrow=classic;html=1;rounded=0;exitX=0.21;exitY=0.543;exitDx=0;exitDy=0;exitPerimeter=0;entryX=0.5;entryY=0;entryDx=0;entryDy=0;" edge="1" parent="1" source="U-Rq0Vjozz2yiy6B-r0v-95" target="U-Rq0Vjozz2yiy6B-r0v-90">
          <mxGeometry width="50" height="50" relative="1" as="geometry">
            <mxPoint x="590" y="860" as="sourcePoint" />
            <mxPoint x="640" y="810" as="targetPoint" />
            <Array as="points">
              <mxPoint x="500" y="710" />
            </Array>
          </mxGeometry>
        </mxCell>
        <mxCell id="U-Rq0Vjozz2yiy6B-r0v-101" value="" style="endArrow=classic;html=1;rounded=0;entryX=0.5;entryY=0;entryDx=0;entryDy=0;exitX=0.788;exitY=0.888;exitDx=0;exitDy=0;exitPerimeter=0;" edge="1" parent="1" source="U-Rq0Vjozz2yiy6B-r0v-95" target="U-Rq0Vjozz2yiy6B-r0v-99">
          <mxGeometry width="50" height="50" relative="1" as="geometry">
            <mxPoint x="692" y="690" as="sourcePoint" />
            <mxPoint x="580" y="750" as="targetPoint" />
            <Array as="points">
              <mxPoint x="790" y="720" />
            </Array>
          </mxGeometry>
        </mxCell>
        <mxCell id="U-Rq0Vjozz2yiy6B-r0v-102" value="" style="endArrow=classic;html=1;rounded=0;exitX=0.5;exitY=1;exitDx=0;exitDy=0;entryX=0.786;entryY=0.448;entryDx=0;entryDy=0;entryPerimeter=0;" edge="1" parent="1" source="U-Rq0Vjozz2yiy6B-r0v-99" target="U-Rq0Vjozz2yiy6B-r0v-98">
          <mxGeometry width="50" height="50" relative="1" as="geometry">
            <mxPoint x="702" y="708" as="sourcePoint" />
            <mxPoint x="704" y="750" as="targetPoint" />
            <Array as="points">
              <mxPoint x="640" y="790" />
            </Array>
          </mxGeometry>
        </mxCell>
        <mxCell id="U-Rq0Vjozz2yiy6B-r0v-103" value="" style="endArrow=classic;html=1;rounded=0;exitX=0.5;exitY=1;exitDx=0;exitDy=0;entryX=0.234;entryY=0.276;entryDx=0;entryDy=0;entryPerimeter=0;" edge="1" parent="1" source="U-Rq0Vjozz2yiy6B-r0v-90" target="U-Rq0Vjozz2yiy6B-r0v-98">
          <mxGeometry width="50" height="50" relative="1" as="geometry">
            <mxPoint x="704" y="784" as="sourcePoint" />
            <mxPoint x="706" y="824" as="targetPoint" />
            <Array as="points">
              <mxPoint x="630" y="790" />
            </Array>
          </mxGeometry>
        </mxCell>
        <mxCell id="U-Rq0Vjozz2yiy6B-r0v-105" style="edgeStyle=orthogonalEdgeStyle;rounded=0;html=1;labelBackgroundColor=none;startArrow=none;startFill=0;startSize=5;endArrow=classicThin;endFill=1;endSize=5;jettySize=auto;orthogonalLoop=1;strokeWidth=1;fontFamily=Verdana;fontSize=12;" edge="1" parent="1" target="U-Rq0Vjozz2yiy6B-r0v-107">
          <mxGeometry relative="1" as="geometry">
            <mxPoint x="630" y="814" as="sourcePoint" />
          </mxGeometry>
        </mxCell>
        <mxCell id="U-Rq0Vjozz2yiy6B-r0v-107" value="" style="shape=mxgraph.bpmn.shape;html=1;verticalLabelPosition=bottom;labelBackgroundColor=#ffffff;verticalAlign=top;perimeter=ellipsePerimeter;outline=end;symbol=terminate;rounded=0;shadow=0;comic=0;strokeWidth=1;fontFamily=Verdana;fontSize=12;align=center;" vertex="1" parent="1">
          <mxGeometry x="610" y="900" width="40" height="40" as="geometry" />
        </mxCell>
        <mxCell id="U-Rq0Vjozz2yiy6B-r0v-108" value="&lt;span style=&quot;font-family: &amp;quot;gg sans&amp;quot;, &amp;quot;Noto Sans&amp;quot;, &amp;quot;Helvetica Neue&amp;quot;, Helvetica, Arial, sans-serif, &amp;quot;Apple Symbols&amp;quot;; font-size: 16px; font-style: normal; font-variant-ligatures: normal; font-variant-caps: normal; font-weight: 400; letter-spacing: normal; text-align: left; text-indent: 0px; text-transform: none; word-spacing: 0px; -webkit-text-stroke-width: 0px; white-space: break-spaces; background-color: oklab(0.0852327 0.00000386313 0.00000170618 / 0.06); text-decoration-thickness: initial; text-decoration-style: initial; text-decoration-color: initial; display: inline !important; float: none;&quot;&gt;©&lt;/span&gt; Szymon" style="text;html=1;align=center;verticalAlign=middle;resizable=0;points=[];autosize=1;strokeColor=none;fillColor=none;" vertex="1" parent="1">
          <mxGeometry x="770" y="720" width="80" height="30" as="geometry" />
        </mxCell>
      </root>
    </mxGraphModel>
  </diagram>
</mxfile>
